<?xml version="1.0" standalone="no"?><!DOCTYPE svg PUBLIC "-//W3C//DTD SVG 1.1//EN" "http://www.w3.org/Graphics/SVG/1.1/DTD/svg11.dtd"><svg t="1738900729290" class="icon" viewBox="0 0 1024 1024" version="1.1" xmlns="http://www.w3.org/2000/svg" p-id="1739" width="16" height="16" xmlns:xlink="http://www.w3.org/1999/xlink"><path d="M968.347826 138.017391c0-57.878261-35.617391-106.852174-84.591304-129.113043-15.582609-4.452174-33.391304-8.904348-51.2-8.904348H195.895652C117.982609 0 55.652174 62.330435 55.652174 138.017391v794.713044C55.652174 1001.73913 133.565217 1046.26087 193.669565 1008.417391l304.973913-182.53913c6.678261-4.452174 13.356522-4.452174 17.808696 0l316.104348 184.765217C892.66087 1046.26087 968.347826 1001.73913 968.347826 932.730435V138.017391c0 2.226087 0 2.226087 0 0zM353.947826 487.513043c-31.165217 0-55.652174-24.486957-55.652174-55.652173s24.486957-55.652174 55.652174-55.652174H456.347826v-102.4c0-31.165217 24.486957-55.652174 55.652174-55.652174s55.652174 24.486957 55.652174 55.652174v102.4h102.4c31.165217 0 55.652174 24.486957 55.652174 55.652174s-24.486957 55.652174-55.652174 55.652173H567.652174v102.4c0 31.165217-24.486957 55.652174-55.652174 55.652174S456.347826 621.078261 456.347826 589.913043v-102.4h-102.4z" p-id="1740" fill="#333333"></path></svg>