<?xml version="1.0" standalone="no"?><!DOCTYPE svg PUBLIC "-//W3C//DTD SVG 1.1//EN" "http://www.w3.org/Graphics/SVG/1.1/DTD/svg11.dtd"><svg t="1759472661273" class="icon" viewBox="0 0 1024 1024" version="1.1" xmlns="http://www.w3.org/2000/svg" p-id="1763" width="36" height="36" xmlns:xlink="http://www.w3.org/1999/xlink"><path d="M924.37504 546.72384a35.80416 35.80416 0 0 0-35.12832 29.3888C856.6272 754.50368 700.32384 890.368 512.57856 890.88c-186.06592 0.50176-341.90336-132.14208-377.36448-307.98848-0.43008-19.42528-16.27648-35.05152-35.80416-35.05152a35.81952 35.81952 0 0 0-33.54624 23.31648 35.584 35.584 0 0 0-2.29376 19.06688V757.76a35.84 35.84 0 0 0 35.84 35.84c17.97632 0 32.8192-13.25056 35.39968-30.50496C217.05728 883.8144 355.6864 962.98496 512.768 962.56c223.17056-0.60416 408.41216-161.55136 447.01696-373.48864 4.02432-22.07232-12.97408-42.40896-35.40992-42.34752zM960.8448 266.24a35.84 35.84 0 0 0-35.84-35.84c-18.25792 0-33.29024 13.66016-35.52256 31.31392C807.54176 140.89216 669.19424 61.44 512.2048 61.44c-223.17056 0-408.84736 160.44544-448.0256 372.2752-4.08064 22.06208 12.86144 42.4448 35.29728 42.4448a35.8144 35.8144 0 0 0 35.21024-29.29152C167.78752 268.56448 324.45952 133.12 512.2048 133.12s344.4224 135.44448 377.51808 313.74848c0.03072 0.17408 0.10752 0.32768 0.13824 0.50176 0.32256 1.61792 0.77824 3.18464 1.31584 4.71552 0.18944 0.54272 0.37376 1.08544 0.5888 1.6128 0.58368 1.44384 1.2544 2.8416 2.01216 4.18816 0.30208 0.5376 0.62464 1.0496 0.95232 1.56672 0.8192 1.29024 1.68448 2.53952 2.65216 3.70688 0.3584 0.4352 0.75264 0.82944 1.13152 1.24416 0.88064 0.96768 1.80736 1.88928 2.78528 2.75456 0.44032 0.38912 0.8704 0.77312 1.3312 1.14176 1.152 0.9216 2.36544 1.75616 3.62496 2.52928 0.42496 0.26112 0.83968 0.53248 1.27488 0.77312a35.456 35.456 0 0 0 5.71904 2.54976c1.61792 0.5632 3.2768 1.024 4.98688 1.35168 0.32768 0.06144 0.66048 0.09728 0.99328 0.1536 1.82784 0.29696 3.69664 0.49152 5.6064 0.49664l0.09216 0.01024H924.99456c1.3312 0 2.64704-0.08704 3.9424-0.22528 0.27136-0.03072 0.53248-0.08704 0.79872-0.12288 1.024-0.13824 2.04288-0.30208 3.04128-0.52224 0.33792-0.0768 0.67072-0.17408 1.00352-0.26112 0.91648-0.2304 1.8176-0.4864 2.70336-0.78336 0.32768-0.11264 0.65024-0.23552 0.9728-0.3584 0.88576-0.32768 1.75616-0.68608 2.6112-1.08544l0.8192-0.39424c0.91136-0.45056 1.792-0.94208 2.65728-1.46432 0.1792-0.11264 0.36352-0.21504 0.54272-0.3328 0.99328-0.62464 1.95072-1.29536 2.87232-2.01216l0.10752-0.08192a35.8656 35.8656 0 0 0 11.26912-15.11424l0.09728-0.26112c0.39936-1.03424 0.74752-2.08896 1.05472-3.16928 0.08192-0.28672 0.14848-0.57856 0.22016-0.8704a35.75808 35.75808 0 0 0 1.09056-7.93088c0.00512-0.28672 0.04096-0.56832 0.04096-0.85504V266.24z" fill="#666666" p-id="1764"></path></svg>