<?xml version="1.0" standalone="no"?><!DOCTYPE svg PUBLIC "-//W3C//DTD SVG 1.1//EN" "http://www.w3.org/Graphics/SVG/1.1/DTD/svg11.dtd"><svg t="1733990357556" class="icon" viewBox="0 0 1024 1024" version="1.1" xmlns="http://www.w3.org/2000/svg" p-id="9212" width="20" height="20" xmlns:xlink="http://www.w3.org/1999/xlink"><path d="M528.87 688.17c-100.49 0-182.25-81.76-182.25-182.25s81.76-182.25 182.25-182.25 182.25 81.76 182.25 182.25-81.76 182.25-182.25 182.25z m0-312.52a130.27 130.27 0 1 0 130.27 130.27 130.42 130.42 0 0 0-130.27-130.27zM225.73 808.21C145.1 727.4 100.7 620 100.7 505.76c0-114.41 44.53-221.95 125.38-302.8l36.75 36.75c-71 71-110.15 165.51-110.15 266 0 100.37 39 194.74 109.85 265.74z m606.44 0l-36.8-36.71c70.84-71 109.85-165.37 109.85-265.74 0-100.53-39.12-195-110.15-266L831.83 203c80.85 80.85 125.38 188.39 125.38 302.8-0.01 114.2-44.41 221.6-125.04 302.41z" p-id="9213" fill="#FFFFFF"></path><path d="M255.72 653.62a310.95 310.95 0 0 1-0.54-294.16L301 384a259 259 0 0 0 0.43 244.79z m546.28 0.12L756.31 629a259.29 259.29 0 0 0 0.43-245l45.84-24.5a311.27 311.27 0 0 1-0.58 294.24z" p-id="9214" fill="#FFFFFF"></path></svg>