<?xml version="1.0" standalone="no"?><!DOCTYPE svg PUBLIC "-//W3C//DTD SVG 1.1//EN" "http://www.w3.org/Graphics/SVG/1.1/DTD/svg11.dtd"><svg t="1759473253738" class="icon" viewBox="0 0 1024 1024" version="1.1" xmlns="http://www.w3.org/2000/svg" p-id="3922" width="36" height="36" xmlns:xlink="http://www.w3.org/1999/xlink"><path d="M203.1 599.3c-48.9 0-88.6-39.6-88.6-88.5s39.6-88.5 88.6-88.5c48.9 0 88.6 39.6 88.6 88.5-0.1 48.9-39.7 88.5-88.6 88.5z m309.9 0c-48.9 0-88.6-39.6-88.6-88.5s39.6-88.5 88.6-88.5c48.9 0 88.6 39.6 88.6 88.5s-39.7 88.5-88.6 88.5z m309.9 0c-48.9 0-88.6-39.6-88.6-88.5s39.6-88.5 88.6-88.5c48.9 0 88.6 39.6 88.6 88.5s-39.6 88.5-88.6 88.5z" fill="#333333" p-id="3923"></path></svg>