<?xml version="1.0" standalone="no"?><!DOCTYPE svg PUBLIC "-//W3C//DTD SVG 1.1//EN" "http://www.w3.org/Graphics/SVG/1.1/DTD/svg11.dtd"><svg t="1733990435266" class="icon" viewBox="0 0 1024 1024" version="1.1" xmlns="http://www.w3.org/2000/svg" p-id="13948" width="20" height="20" xmlns:xlink="http://www.w3.org/1999/xlink"><path d="M512.512 92.16c-231.936 0-420.352 167.936-420.352 375.296 0 121.856 59.392 229.888 159.744 298.496 0.512 0.512-10.24 165.376-10.24 165.376l168.96-98.816c31.232 6.656 66.048 10.24 99.328 10.24 231.936 0 421.888-167.936 421.888-375.296s-186.88-374.784-419.328-375.296z m-195.584 446.464c-33.792 0-60.928-27.136-60.928-60.928s27.136-60.928 60.928-60.928 60.928 27.136 60.928 60.928-27.136 60.928-60.928 60.928z m203.776 0c-33.792 0-60.928-27.136-60.928-60.928s27.136-60.928 60.928-60.928 60.928 27.136 60.928 60.928-27.136 60.928-60.928 60.928z m203.776 0c-33.792 0-60.928-27.136-60.928-60.928s27.136-60.928 60.928-60.928 60.928 27.136 60.928 60.928-27.136 60.928-60.928 60.928z" p-id="13949" fill="#787F8D"></path></svg>