<?xml version="1.0" standalone="no"?><!DOCTYPE svg PUBLIC "-//W3C//DTD SVG 1.1//EN" "http://www.w3.org/Graphics/SVG/1.1/DTD/svg11.dtd"><svg t="1745909623119" class="icon" viewBox="0 0 1024 1024" version="1.1" xmlns="http://www.w3.org/2000/svg" p-id="3455" width="21" height="21" xmlns:xlink="http://www.w3.org/1999/xlink"><path d="M1013.76 565.248c-0.512-15.872-14.336-29.184-30.72-29.184-1.536 0-3.072 0-5.12 0.512-14.336 2.56-25.6 15.872-25.6 31.232-0.512 142.848-117.248 259.584-260.608 259.584H333.824c-145.408 0-263.68-118.272-263.68-263.68s118.272-264.192 263.68-264.192h500.224V389.12l162.304-121.856-162.304-121.856v91.648H335.872C156.16 237.568 10.24 383.488 10.24 562.688s145.92 325.632 325.632 325.632h356.352c177.664 0 322.048-144.384 322.048-321.024l-0.512-2.048z" p-id="3456" fill="#adb1b9"></path><path d="M564.736 729.6V379.392H495.616v11.776c0 18.432-4.608 32.256-13.824 41.472-9.216 9.216-22.528 13.824-39.424 13.824h-12.8V506.88h55.296v222.72h79.872z" p-id="3457" fill="#adb1b9"></path></svg>