<?xml version="1.0" standalone="no"?><!DOCTYPE svg PUBLIC "-//W3C//DTD SVG 1.1//EN" "http://www.w3.org/Graphics/SVG/1.1/DTD/svg11.dtd"><svg t="1772894999004" class="icon" viewBox="0 0 1024 1024" version="1.1" xmlns="http://www.w3.org/2000/svg" p-id="24482" width="20" height="20" xmlns:xlink="http://www.w3.org/1999/xlink"><path d="M864.49 448H768V320c0-141.38-114.62-256-256-256S256 178.62 256 320v128h-96.49c-17.4 0-31.51 14.11-31.51 31.51v448.98c0 17.4 14.11 31.51 31.51 31.51h704.98c17.4 0 31.51-14.11 31.51-31.51V479.51c0-17.4-14.11-31.51-31.51-31.51zM320 320c0-105.87 86.13-192 192-192s192 86.13 192 192v128H320V320z m512 576H192V512h640v384z" fill="#ffffff" p-id="24483"></path></svg>